<svg width="39" height="38" viewBox="0 0 39 38" fill="none" xmlns="http://www.w3.org/2000/svg">
<path d="M19.485 24.5293C19.5127 24.5648 19.5482 24.5935 19.5887 24.6132C19.6292 24.6329 19.6737 24.6432 19.7188 24.6432C19.7638 24.6432 19.8083 24.6329 19.8488 24.6132C19.8893 24.5935 19.9248 24.5648 19.9525 24.5293L24.1088 19.2709C24.2609 19.0779 24.1236 18.7922 23.875 18.7922H21.1252V6.23438C21.1252 6.07109 20.9916 5.9375 20.8283 5.9375H18.6018C18.4385 5.9375 18.3049 6.07109 18.3049 6.23438V18.7885H15.5625C15.3139 18.7885 15.1766 19.0742 15.3287 19.2672L19.485 24.5293ZM33.3008 23.2305H31.0742C30.9109 23.2305 30.7773 23.3641 30.7773 23.5273V29.2422H8.66016V23.5273C8.66016 23.3641 8.52656 23.2305 8.36328 23.2305H6.13672C5.97344 23.2305 5.83984 23.3641 5.83984 23.5273V30.875C5.83984 31.5318 6.37051 32.0625 7.02734 32.0625H32.4102C33.067 32.0625 33.5977 31.5318 33.5977 30.875V23.5273C33.5977 23.3641 33.4641 23.2305 33.3008 23.2305Z" fill="black"/>
</svg>
